<?xml version="1.0" encoding="iso-8859-1"?>
<!-- Generator: Adobe Illustrator 19.0.0, SVG Export Plug-In . SVG Version: 6.00 Build 0)  -->
<svg xmlns="http://www.w3.org/2000/svg" xmlns:xlink="http://www.w3.org/1999/xlink" version="1.1" id="Layer_1" x="0px" y="0px" viewBox="0 0 341.956 341.956" style="enable-background:new 0 0 341.956 341.956;" xml:space="preserve" width="512" height="512">
<g>
	<path style="fill:#1C7287;" d="M10.655,335.932l-3.984-3.984c-8.032-8.032-8.032-21.056,0-29.088L211.286,98.245   c8.032-8.032,21.056-8.032,29.088,0l3.984,3.984c8.032,8.032,8.032,21.056,0,29.088L39.743,335.932   C31.71,343.964,18.687,343.964,10.655,335.932z"/>
	<path style="fill:#165C6C;" d="M151.869,157.662L6.671,302.86c-8.032,8.032-8.032,21.056,0,29.088l3.984,3.984   c8.032,8.032,21.056,8.032,29.088,0l112.126-112.126V157.662z"/>
	<path style="fill:#32A5B9;" d="M209.459,166.215l34.899-34.899c8.032-8.032,8.032-21.056,0-29.088l-3.984-3.984   c-8.032-8.032-21.056-8.032-29.088,0l-34.899,34.899L209.459,166.215z"/>
	<path style="fill:#F8B242;" d="M280.346,76.043c-3.839,0-7.658-1.445-10.587-4.374c-5.858-5.857-5.838-15.336,0.019-21.193   l23.22-23.22c5.857-5.857,15.356-5.857,21.213,0c5.858,5.857,5.858,15.355,0,21.213l-23.22,23.22   C288.063,74.618,284.185,76.043,280.346,76.043z"/>
	<path style="fill:#F8B242;" d="M229.462,69.272c-7.257,0-13.636-5.276-14.799-12.671l-6.176-39.267   C207.2,9.151,212.79,1.473,220.974,0.186c8.183-1.293,15.861,4.303,17.148,12.486l6.176,39.267   c1.287,8.184-4.304,15.861-12.487,17.148C231.022,69.212,230.237,69.272,229.462,69.272z"/>
	<path style="fill:#F8B242;" d="M326.326,133.008c-0.775,0-1.56-0.06-2.35-0.185l-39.266-6.177   c-8.184-1.287-13.774-8.965-12.487-17.148c1.287-8.183,8.961-13.789,17.149-12.486l39.266,6.177   c8.184,1.287,13.774,8.965,12.487,17.148C339.962,127.731,333.582,133.008,326.326,133.008z"/>
	<g>
		<path style="fill:#F8B242;" d="M175.525,89.405c-3.839,0-7.597-1.546-10.525-4.475l-25.467-25.467    c-5.858-5.858-5.858-15.356,0-21.213c5.857-5.857,15.356-5.858,21.213,0l25.467,25.467c5.858,5.858,5.817,15.396-0.041,21.254    C183.244,87.9,179.364,89.405,175.525,89.405z"/>
		<path style="fill:#D09838;" d="M151.869,33.968c-4.393-0.507-8.966,0.913-12.335,4.282c-5.858,5.857-5.858,15.355,0,21.213    l12.335,12.335V33.968z"/>
		<path style="fill:#F8B242;" d="M292.372,206.252c-3.839,0-7.597-1.546-10.525-4.475l-25.467-25.467    c-5.858-5.858-5.858-15.356,0-21.213c5.857-5.857,15.356-5.858,21.213,0l25.467,25.467c5.858,5.858,5.817,15.396-0.041,21.254    C300.09,204.747,296.211,206.252,292.372,206.252z"/>
	</g>
</g>















</svg>
